# xmcd
#
# Track frame offsets: 
#        150
#        33048
#        54180
#        76708
#        95698
#        126815
#        147635
#        165243
#        181330
#        204468
#        227210
#        251925
#
# Disc length: 3556 seconds
#
# Revision: 0
# Processed by: cddbd v1.5.2PL0 Copyright (c) Steve Scherf et al.
# Submitted via: ExactAudioCopy v0.99pb5
#
DISCID=990de20c
DTITLE=Chris Rea - Auberge
DYEAR=1991
DGENRE=Blues
TTITLE0=Chris Rea - Auberge
TTITLE1=Chris Rea - Gone Fishing
TTITLE2=Chris Rea - You're Not A Number
TTITLE3=Chris Rea - Heaven
TTITLE4=Chris Rea - Set Me Free
TTITLE5=Chris Rea - Winter Song
TTITLE6=Chris Rea - Red Shoes
TTITLE7=Chris Rea - Sing A Song Of Love To Me
TTITLE8=Chris Rea - Every Second Counts
TTITLE9=Chris Rea - Looking For The Summer
TTITLE10=Chris Rea - And You My Love
TTITLE11=Chris Rea - The Mention Of Your Name
EXTD=
EXTT0=
EXTT1=
EXTT2=
EXTT3=
EXTT4=
EXTT5=
EXTT6=
EXTT7=
EXTT8=
EXTT9=
EXTT10=
EXTT11=
PLAYORDER=
